<?xml version="1.0" encoding="UTF-8"?>
<!-- Created with Inkscape (http://www.inkscape.org/) -->
<svg width="250" height="250" version="1.1" viewBox="0 0 66.146 66.146" xmlns="http://www.w3.org/2000/svg">
 <defs>
  <clipPath id="clipPath39">
   <path d="m33.073-9.5367e-7a33.073 33.073 0 0 0-33.073 33.073 33.073 33.073 0 0 0 33.073 33.073 33.073 33.073 0 0 0 33.073-33.073 33.073 33.073 0 0 0-33.073-33.073zm0 2.9021a30.171 30.171 0 0 1 30.171 30.171 30.171 30.171 0 0 1-30.171 30.171 30.171 30.171 0 0 1-30.171-30.171 30.171 30.171 0 0 1 30.171-30.171zm0 1.0666a29.104 29.104 0 0 0-29.104 29.104 29.104 29.104 0 0 0 29.104 29.104 29.104 29.104 0 0 0 29.104-29.104 29.104 29.104 0 0 0-29.104-29.104zm1.3333 17.762h3.207l-0.81029 3.9155h4.6586l-0.80977 3.7812h-4.6586l-1.8908 8.878c-0.06752 0.33757-0.10129 0.63042-0.10129 0.87798 0 0.4276 0.13508 0.74261 0.40515 0.94516 0.27006 0.18004 0.61885 0.27027 1.0464 0.27027 0.4501 0 0.87803-0.0454 1.2831-0.13539 0.4276-0.11253 0.88878-0.25869 1.3839-0.43874v3.7135c-0.51762 0.24756-1.1477 0.45018-1.8903 0.60772-0.74267 0.18004-1.5753 0.26975-2.498 0.26975-1.4403 0-2.5996-0.30342-3.4773-0.91106-0.8777-0.63014-1.3162-1.7446-1.3162-3.3424 0-0.56263 0.06754-1.1816 0.20257-1.8567l1.8903-8.878h-2.498l0.47232-2.4309 3.2411-1.3839zm13.841 0h3.207l-0.81029 3.9155h4.6586l-0.81029 3.7812h-4.6586l-1.8903 8.878c-0.06752 0.33757-0.10128 0.63042-0.10128 0.87798 0 0.4276 0.13508 0.74261 0.40514 0.94516 0.27006 0.18004 0.61885 0.27027 1.0464 0.27027 0.4501 0 0.87752-0.0454 1.2826-0.13539 0.4276-0.11253 0.8893-0.25869 1.3844-0.43874v3.7135c-0.51762 0.24756-1.1482 0.45018-1.8908 0.60772-0.74267 0.18004-1.5753 0.26975-2.498 0.26975-1.4403 0-2.5991-0.30342-3.4768-0.91106-0.8777-0.63014-1.3167-1.7446-1.3167-3.3424 0-0.56263 0.06754-1.1816 0.20257-1.8567l1.8903-8.878h-2.498l0.47284-2.4309 3.2406-1.3839zm-33.049 3.9155h12.355l-0.709 3.3083-9.3167 11.275h7.2238l-0.80977 3.8483h-13.098l0.57412-2.9709 9.4857-11.612h-6.549z" stroke-width=".29168"/>
  </clipPath>
 </defs>
 <g clip-path="url(#clipPath39)" stroke-width=".26458">
  <rect width="8.2682" height="66.146" fill="#c91a2e"/>
  <rect x="8.2682" y="-9.5367e-7" width="8.2682" height="66.146" fill="#f04720"/>
  <rect x="16.536" y="-9.5367e-7" width="8.2682" height="66.146" fill="#079e47"/>
  <rect x="33.073" y="-9.5367e-7" width="8.2682" height="66.146" fill="#0fa1dc"/>
  <rect x="41.341" y="-9.5367e-7" width="8.2682" height="66.146" fill="#623316"/>
  <rect x="49.609" y="-9.5367e-7" width="8.2682" height="66.146" fill="#532a92"/>
  <rect x="57.878" y="-3.5527e-15" width="8.2682" height="66.146" fill="#e480a9"/>
  <rect x="24.805" y="-9.5367e-7" width="8.2682" height="66.146" fill="#f5e603"/>
 </g>
</svg>
